TITLE "Mix 53 - Ravers Technology"
PERFORMER "Samination"
FILE "samination_mix53-ravers_technology.ogg" WAVE
	TRACK 01 AUDIO
		TITLE "Gold Harmony"
		PERFORMER "DJ Dann"
		INDEX 01 00:00:00
	TRACK 02 AUDIO
		TITLE "Here We Go"
		PERFORMER "DJ Depath & Xavi BCN vs T-ty & Kullere"
		INDEX 01 04:13:55
	TRACK 03 AUDIO
		TITLE "Dream Machine"
		PERFORMER "DJ GONE"
		INDEX 01 07:35:45
	TRACK 04 AUDIO
		TITLE "Jump the Fuck Up!"
		PERFORMER "TripleXL"
		INDEX 01 08:56:45
	TRACK 05 AUDIO
		TITLE "Ravers Groovin (Powerstomp Mix)"
		PERFORMER "Eufeion"
		INDEX 01 11:28:10
	TRACK 06 AUDIO
		TITLE "Hold Me Now"
		PERFORMER "Ramos, Protocol & Mob ft Gemma"
		INDEX 01 14:24:65
	TRACK 07 AUDIO
		TITLE "Gravity (Darts remix)"
		PERFORMER "Samba D Ft Zoe VanWest"
		INDEX 01 18:22:25
	TRACK 08 AUDIO
		TITLE "Reborn"
		PERFORMER "JD-KiD"
		INDEX 01 20:23:40
	TRACK 09 AUDIO
		TITLE "Dark Symphony (Daniel Seven remix)"
		PERFORMER "Dj Neutron"
		INDEX 01 23:55:50
	TRACK 10 AUDIO
		TITLE "50 yrs"
		PERFORMER "Fostbeat"
		INDEX 01 27:39:30
	TRACK 11 AUDIO
		TITLE "Many Complications"
		PERFORMER "Hommarju"
		INDEX 01 31:54:40
	TRACK 12 AUDIO
		TITLE "Music Is My Drug"
		PERFORMER "Darren G & Bridson"
		INDEX 01 34:37:30
	TRACK 13 AUDIO
		TITLE "Yabarekabare"
		PERFORMER "Suge"
		INDEX 01 37:29:15
	TRACK 14 AUDIO
		TITLE "Cracks"
		PERFORMER "AniMe"
		INDEX 01 39:50:50
	TRACK 15 AUDIO
		TITLE "Lost Technology"
		PERFORMER "6th"
		INDEX 01 42:59:20
	TRACK 16 AUDIO
		TITLE "Riason"
		PERFORMER "Asin"
		INDEX 01 46:01:10
	TRACK 17 AUDIO
		TITLE "The Dream"
		PERFORMER "Hatebusters"
		INDEX 01 48:42:55
	TRACK 18 AUDIO
		TITLE "Forget The World"
		PERFORMER "Joey Riot"
		INDEX 01 51:05:35
	TRACK 19 AUDIO
		TITLE "Tsunami (Jay Cosmic Remix)"
		PERFORMER "DVBBS & Borgeous"
		INDEX 01 53:06:55
	TRACK 20 AUDIO
		TITLE "Come Along"
		PERFORMER "Ranzor"
		INDEX 01 55:28:15
